<?xml version="1.0" standalone="no"?>
<!DOCTYPE svg PUBLIC "-//W3C//DTD SVG 20010904//EN"
 "http://www.w3.org/TR/2001/REC-SVG-20010904/DTD/svg10.dtd">
<svg version="1.0" xmlns="http://www.w3.org/2000/svg"
 width="2140.000000pt" height="2140.000000pt" viewBox="0 0 2140.000000 2140.000000"
 preserveAspectRatio="xMidYMid meet">
<metadata>
Created by potrace 1.14, written by Peter Selinger 2001-2017
</metadata>
<g transform="translate(0.000000,2140.000000) scale(0.100000,-0.100000)"
fill="#000000" stroke="none">
<path d="M14019 20066 c-2 -2 -31 -6 -64 -10 -94 -9 -116 -13 -265 -42 -140
-28 -397 -106 -543 -165 -29 -12 -61 -25 -72 -29 -206 -80 -537 -257 -765
-408 -47 -31 -87 -59 -90 -62 -3 -3 -21 -17 -40 -30 -19 -14 -42 -30 -50 -37
-8 -6 -51 -40 -95 -74 -80 -63 -99 -79 -209 -180 -69 -63 -202 -199 -248 -254
-18 -21 -55 -64 -82 -94 -241 -277 -509 -715 -647 -1057 -29 -72 -95 -258
-104 -294 -2 -8 -17 -64 -34 -125 -33 -123 -66 -282 -77 -365 -3 -30 -8 -63
-9 -72 -2 -9 -6 -45 -9 -80 -4 -35 -9 -90 -12 -123 -5 -66 -6 -366 0 -430 2
-22 5 -48 5 -57 1 -17 18 -18 234 -14 127 2 243 7 257 10 14 3 45 9 70 12 25
3 77 13 115 21 39 8 81 17 95 19 39 8 262 74 295 88 17 7 64 26 105 42 277
106 636 332 949 599 48 41 370 362 432 430 148 164 359 456 483 667 112 192
296 589 296 641 0 7 4 17 8 22 8 9 36 94 63 195 7 25 14 50 15 55 6 21 23 91
28 115 2 14 9 45 14 70 6 25 13 63 16 85 4 22 10 65 16 95 8 48 13 100 26 240
4 48 4 446 0 490 -2 19 -4 52 -5 73 l-1 37 -48 0 c-27 0 -51 -2 -53 -4z"/>
<path d="M13638 16055 c-2 -1 -46 -5 -98 -9 -52 -3 -106 -8 -120 -10 -14 -3
-45 -7 -70 -10 -110 -14 -142 -19 -260 -43 -69 -13 -136 -27 -150 -29 -39 -7
-258 -63 -335 -85 -124 -36 -240 -70 -255 -76 -8 -3 -19 -7 -25 -9 -5 -1 -84
-28 -175 -59 -91 -31 -176 -60 -190 -65 -14 -4 -106 -38 -205 -75 -865 -320
-964 -343 -1255 -284 -87 18 -122 26 -160 39 -14 4 -59 18 -100 30 -88 26
-231 75 -495 170 -366 132 -736 258 -805 276 -8 2 -37 10 -65 18 -181 53 -164
49 -325 85 -207 47 -222 50 -265 56 -23 3 -52 8 -65 10 -14 3 -53 8 -87 10
-33 3 -76 8 -95 10 -36 6 -306 6 -378 1 -76 -6 -204 -18 -224 -22 -10 -2 -44
-6 -75 -10 -31 -3 -65 -8 -76 -10 -10 -2 -35 -6 -55 -9 -20 -3 -47 -7 -60 -10
-707 -135 -1325 -416 -1877 -853 -398 -315 -754 -722 -1013 -1157 -29 -49 -64
-107 -77 -127 -44 -71 -211 -423 -266 -564 -84 -211 -153 -425 -212 -659 -29
-115 -56 -227 -59 -247 -3 -21 -11 -59 -17 -85 -6 -27 -12 -59 -14 -73 -2 -14
-6 -38 -9 -55 -2 -16 -10 -66 -16 -110 -7 -44 -13 -87 -15 -95 -2 -8 -6 -49
-10 -90 -4 -41 -9 -78 -10 -81 -2 -3 -7 -52 -10 -108 -4 -57 -8 -112 -10 -122
-20 -105 -20 -835 0 -1039 2 -19 6 -80 10 -135 3 -55 8 -107 10 -115 2 -8 7
-49 10 -90 4 -41 8 -86 10 -100 2 -14 6 -43 9 -65 6 -42 35 -253 41 -295 5
-32 13 -80 27 -155 6 -33 12 -71 14 -85 2 -14 14 -77 28 -140 14 -63 28 -131
31 -150 3 -19 8 -43 11 -52 3 -9 6 -25 8 -35 2 -10 18 -76 36 -146 18 -70 33
-136 35 -145 2 -9 4 -17 5 -17 1 0 3 -7 5 -15 9 -40 58 -216 85 -305 17 -55
33 -109 35 -120 3 -11 21 -67 40 -125 20 -58 38 -112 40 -120 1 -8 15 -49 30
-90 14 -41 33 -95 42 -120 105 -302 458 -1079 643 -1415 15 -27 47 -86 70
-130 48 -89 56 -104 148 -265 279 -492 585 -948 898 -1340 128 -160 150 -186
216 -260 17 -19 49 -55 71 -80 138 -155 459 -463 541 -519 12 -8 23 -18 26
-21 5 -7 165 -127 196 -148 203 -134 320 -199 466 -260 226 -94 432 -141 643
-144 70 -1 285 11 295 17 3 1 25 6 50 9 25 3 56 8 70 11 14 3 39 8 55 10 126
23 510 142 710 222 509 202 960 335 1250 368 28 3 59 8 70 10 129 26 658 26
795 0 12 -2 41 -7 64 -9 22 -3 52 -8 66 -11 24 -5 110 -21 160 -31 41 -8 208
-53 315 -86 137 -41 546 -191 597 -219 10 -5 23 -9 29 -9 6 0 25 -6 42 -14 68
-30 385 -140 435 -151 10 -2 49 -13 87 -24 83 -23 248 -57 325 -67 30 -3 64
-8 75 -10 21 -4 234 -17 270 -17 113 1 315 29 425 59 30 8 62 16 70 19 97 24
346 134 485 214 115 66 410 272 445 311 3 3 21 18 40 34 108 89 260 234 410
393 425 449 898 1132 1278 1843 42 78 257 504 258 510 0 3 24 54 52 113 29 59
52 111 52 115 0 4 7 21 16 37 61 116 293 703 319 805 6 23 0 28 -82 68 -244
117 -505 277 -738 452 -71 54 -139 106 -150 116 -12 11 -54 48 -95 84 -151
132 -349 340 -450 470 -19 25 -40 51 -47 58 -7 7 -13 17 -13 20 0 4 -10 18
-23 32 -12 14 -40 52 -62 85 -21 33 -41 62 -44 65 -3 3 -12 16 -20 30 -8 14
-42 70 -76 125 -119 193 -245 471 -325 715 -36 107 -96 327 -106 388 -3 15
-11 59 -19 97 -7 39 -17 93 -20 120 -4 28 -9 61 -11 75 -2 14 -6 54 -9 90 -3
36 -8 81 -10 100 -6 44 -6 419 0 525 7 123 18 247 30 325 22 144 43 258 61
330 26 111 39 156 69 252 20 62 40 122 44 133 40 99 136 322 142 330 4 6 26
46 50 90 229 434 595 845 1059 1191 111 82 259 184 348 238 34 20 62 40 62 43
0 11 -95 139 -188 252 -92 113 -357 384 -458 468 -454 379 -966 639 -1574 797
-74 19 -146 37 -160 40 -14 3 -36 7 -50 10 -56 13 -241 47 -270 51 -8 1 -37 5
-65 9 -135 19 -186 25 -250 31 -38 4 -81 9 -95 11 -27 6 -457 14 -462 9z"/>
</g>
</svg>
